# xmcd CD database file
#
# Track frame offsets:
#	150
#	21577
#	43462
#	73075
#	90096
#	124461
#	140188
#	166289
#	187390
#	203990
#	228341
#	252810
#
# Disc length: 3764 seconds
#
# Revision: 1
# Processed by: cddbd v1.5.2PL0 Copyright (c) Steve Scherf et al.
# Submitted via: CDex 1.51
#
DISCID=bb0eb20c
DTITLE=Robert Lighthouse - Drive-Thru Love
DYEAR=2000
DGENRE=Blues
TTITLE0=Going to the River
TTITLE1=Drive-Thru Love
TTITLE2=Going Back South
TTITLE3=She's the one I love
TTITLE4=Voodoo Child
TTITLE5=Talk to me Baby
TTITLE6=Shake for me
TTITLE7=Looking for my lover
TTITLE8=Crossroads
TTITLE9=Machine
TTITLE10=Lost and Found
TTITLE11=Riding Into the Sun
EXTD=onefiftyfour YEAR: 2000
EXTT0=
EXTT1=
EXTT2=
EXTT3=
EXTT4=
EXTT5=
EXTT6=
EXTT7=
EXTT8=
EXTT9=
EXTT10=
EXTT11=
PLAYORDER=
